<mxfile host="65bd71144e">
    <diagram name="UCdetail-08: AI Assistance Module" id="ucdetail-08">
        <mxGraphModel dx="1064" dy="776" grid="1" gridSize="10" guides="1" tooltips="1" connect="1" arrows="1" fold="1" page="1" pageScale="1" pageWidth="1200" pageHeight="800" math="0" shadow="0">
            <root>
                <mxCell id="0"/>
                <mxCell id="1" parent="0"/>
                <mxCell id="title" value="UCdetail-08: AI Assistance Module" style="text;html=1;align=center;verticalAlign=middle;whiteSpace=wrap;rounded=0;fontSize=18;fontStyle=1;fillColor=#722ed1;fontColor=#ffffff" parent="1" vertex="1">
                    <mxGeometry x="200" y="20" width="800" height="40" as="geometry"/>
                </mxCell>
                <mxCell id="system-boundary" value="AI Assistance Module" style="rounded=1;whiteSpace=wrap;html=1;fontSize=14;fontStyle=1;fillColor=#f9f0ff;strokeColor=#722ed1;strokeWidth=2;verticalAlign=top" parent="1" vertex="1">
                    <mxGeometry x="150" y="80" width="900" height="650" as="geometry"/>
                </mxCell>
                <mxCell id="student" value="Student" style="shape=umlActor;verticalLabelPosition=bottom;verticalAlign=top;html=1;outlineConnect=0;fontSize=12;fillColor=#d5e8d4;strokeColor=#82b366" parent="1" vertex="1">
                    <mxGeometry x="50" y="300" width="40" height="80" as="geometry"/>
                </mxCell>
                <mxCell id="ai-engine" value="AI Engine" style="shape=umlActor;verticalLabelPosition=bottom;verticalAlign=top;html=1;outlineConnect=0;fontSize=12;fillColor=#e1d5e7;strokeColor=#9673a6" parent="1" vertex="1">
                    <mxGeometry x="1100" y="175" width="40" height="80" as="geometry"/>
                </mxCell>
                <mxCell id="knowledge-base" value="Knowledge Base" style="shape=umlActor;verticalLabelPosition=bottom;verticalAlign=top;html=1;outlineConnect=0;fontSize=10;fillColor=#fff2cc;strokeColor=#d6b656" parent="1" vertex="1">
                    <mxGeometry x="1100" y="290" width="40" height="80" as="geometry"/>
                </mxCell>
                <mxCell id="ask-question" value="Ask Algorithm Question" style="ellipse;whiteSpace=wrap;html=1;fontSize=11;fillColor=#d5e8d4;strokeColor=#82b366;fontStyle=1" parent="1" vertex="1">
                    <mxGeometry x="220" y="180" width="120" height="70" as="geometry"/>
                </mxCell>
                <mxCell id="get-hints" value="Get Code Hints" style="ellipse;whiteSpace=wrap;html=1;fontSize=11;fillColor=#d5e8d4;strokeColor=#82b366" parent="1" vertex="1">
                    <mxGeometry x="220" y="305" width="120" height="70" as="geometry"/>
                </mxCell>
                <mxCell id="suggest-optimization" value="Suggest Code Optimization" style="ellipse;whiteSpace=wrap;html=1;fontSize=11;fillColor=#ffe6cc;strokeColor=#d79b00" parent="1" vertex="1">
                    <mxGeometry x="220" y="400" width="120" height="70" as="geometry"/>
                </mxCell>
                <mxCell id="generate-test-cases" value="Generate Test Cases" style="ellipse;whiteSpace=wrap;html=1;fontSize=11;fillColor=#ffe6cc;strokeColor=#d79b00" parent="1" vertex="1">
                    <mxGeometry x="220" y="510" width="120" height="70" as="geometry"/>
                </mxCell>
                <mxCell id="process-query" value="Process Natural Language Query" style="ellipse;whiteSpace=wrap;html=1;fontSize=10;fillColor=#f0f9ff;strokeColor=#1890ff" parent="1" vertex="1">
                    <mxGeometry x="640" y="185" width="110" height="60" as="geometry"/>
                </mxCell>
                <mxCell id="analyze-code" value="Analyze Code Structure" style="ellipse;whiteSpace=wrap;html=1;fontSize=10;fillColor=#f0f9ff;strokeColor=#1890ff" parent="1" vertex="1">
                    <mxGeometry x="695" y="310" width="110" height="60" as="geometry"/>
                </mxCell>
                <mxCell id="retrieve-knowledge" value="Retrieve Algorithm Knowledge" style="ellipse;whiteSpace=wrap;html=1;fontSize=10;fillColor=#fff7e6;strokeColor=#d48806" parent="1" vertex="1">
                    <mxGeometry x="640" y="250" width="110" height="60" as="geometry"/>
                </mxCell>
                <mxCell id="format-response" value="Format AI Response" style="ellipse;whiteSpace=wrap;html=1;fontSize=10;fillColor=#e1d5e7;strokeColor=#9673a6" parent="1" vertex="1">
                    <mxGeometry x="380" y="110" width="110" height="60" as="geometry"/>
                </mxCell>
                <mxCell id="adaptive-learning" value="Adaptive Learning Path" style="ellipse;whiteSpace=wrap;html=1;fontSize=10;fillColor=#fff1f0;strokeColor=#ff4d4f" parent="1" vertex="1">
                    <mxGeometry x="640" y="115" width="110" height="60" as="geometry"/>
                </mxCell>
                <mxCell id="personalized-hints" value="Personalized Hint System" style="ellipse;whiteSpace=wrap;html=1;fontSize=10;fillColor=#fff1f0;strokeColor=#ff4d4f" parent="1" vertex="1">
                    <mxGeometry x="380" y="260" width="110" height="60" as="geometry"/>
                </mxCell>
                <mxCell id="code-completion" value="Intelligent Code Completion" style="ellipse;whiteSpace=wrap;html=1;fontSize=10;fillColor=#fff1f0;strokeColor=#ff4d4f" parent="1" vertex="1">
                    <mxGeometry x="380" y="350" width="110" height="60" as="geometry"/>
                </mxCell>
                <mxCell id="mistake-detection" value="Common Mistake Detection" style="ellipse;whiteSpace=wrap;html=1;fontSize=10;fillColor=#fff1f0;strokeColor=#ff4d4f" parent="1" vertex="1">
                    <mxGeometry x="900" y="380" width="110" height="60" as="geometry"/>
                </mxCell>
                <mxCell id="student-question" value="" style="endArrow=none;html=1;rounded=0;fontSize=12;startSize=8;endSize=8;exitX=1;exitY=0.3;" parent="1" source="student" target="ask-question" edge="1">
                    <mxGeometry width="50" height="50" relative="1" as="geometry">
                        <mxPoint x="400" y="400" as="sourcePoint"/>
                        <mxPoint x="450" y="350" as="targetPoint"/>
                    </mxGeometry>
                </mxCell>
                <mxCell id="student-hints" value="" style="endArrow=none;html=1;rounded=0;fontSize=12;startSize=8;endSize=8;exitX=1;exitY=0.5;" parent="1" source="student" target="get-hints" edge="1">
                    <mxGeometry width="50" height="50" relative="1" as="geometry">
                        <mxPoint x="400" y="400" as="sourcePoint"/>
                        <mxPoint x="450" y="350" as="targetPoint"/>
                    </mxGeometry>
                </mxCell>
                <mxCell id="ai-engine-connection" value="" style="endArrow=none;html=1;rounded=0;fontSize=12;startSize=8;endSize=8;exitX=0;exitY=0.5;" parent="1" source="ai-engine" target="process-query" edge="1">
                    <mxGeometry width="50" height="50" relative="1" as="geometry">
                        <mxPoint x="400" y="400" as="sourcePoint"/>
                        <mxPoint x="450" y="350" as="targetPoint"/>
                    </mxGeometry>
                </mxCell>
                <mxCell id="knowledge-base-connection" value="" style="endArrow=none;html=1;rounded=0;fontSize=12;startSize=8;endSize=8;exitX=0;exitY=0.5;" parent="1" source="knowledge-base" target="retrieve-knowledge" edge="1">
                    <mxGeometry width="50" height="50" relative="1" as="geometry">
                        <mxPoint x="400" y="400" as="sourcePoint"/>
                        <mxPoint x="450" y="350" as="targetPoint"/>
                    </mxGeometry>
                </mxCell>
                <mxCell id="scenario-question" value="Scenario 1: Algorithm Question&#xa;1. Student asks complexity question&#xa;2. AI processes natural language&#xa;3. Retrieves relevant knowledge&#xa;4. Provides formatted explanation" style="rounded=1;whiteSpace=wrap;html=1;fontSize=9;align=left;verticalAlign=top;fillColor=#f0f9ff;strokeColor=#1890ff" parent="1" vertex="1">
                    <mxGeometry x="390" y="620" width="180" height="90" as="geometry"/>
                </mxCell>
                <mxCell id="scenario-hints" value="Scenario 2: Personalized Hints&#xa;1. Student requests code hints&#xa;2. AI analyzes current progress&#xa;3. Provides adaptive guidance&#xa;4. Detects common mistakes" style="rounded=1;whiteSpace=wrap;html=1;fontSize=9;align=left;verticalAlign=top;fillColor=#f6ffed;strokeColor=#52c41a" parent="1" vertex="1">
                    <mxGeometry x="590" y="620" width="180" height="90" as="geometry"/>
                </mxCell>
                <mxCell id="scenario-optimization" value="Scenario 3: Code Optimization&#xa;1. Student submits solution&#xa;2. AI suggests improvements&#xa;3. Intelligent code completion&#xa;4. Test case generation" style="rounded=1;whiteSpace=wrap;html=1;fontSize=9;align=left;verticalAlign=top;fillColor=#fff7e6;strokeColor=#d48806" parent="1" vertex="1">
                    <mxGeometry x="790" y="620" width="180" height="90" as="geometry"/>
                </mxCell>
                <mxCell id="3" value="&amp;lt;&amp;lt;include&amp;gt;&amp;gt;" style="html=1;verticalAlign=bottom;labelBackgroundColor=none;endArrow=open;endFill=0;dashed=1;exitX=1;exitY=0.5;exitDx=0;exitDy=0;entryX=0;entryY=0.5;entryDx=0;entryDy=0;" edge="1" parent="1" source="ask-question" target="process-query">
                    <mxGeometry width="160" relative="1" as="geometry">
                        <mxPoint x="330" y="500" as="sourcePoint"/>
                        <mxPoint x="490" y="500" as="targetPoint"/>
                    </mxGeometry>
                </mxCell>
                <mxCell id="4" value="&amp;lt;&amp;lt;include&amp;gt;&amp;gt;" style="html=1;verticalAlign=bottom;labelBackgroundColor=none;endArrow=open;endFill=0;dashed=1;exitX=1;exitY=1;exitDx=0;exitDy=0;entryX=0;entryY=0.5;entryDx=0;entryDy=0;" edge="1" parent="1" source="ask-question" target="retrieve-knowledge">
                    <mxGeometry width="160" relative="1" as="geometry">
                        <mxPoint x="350" y="205" as="sourcePoint"/>
                        <mxPoint x="550" y="205" as="targetPoint"/>
                    </mxGeometry>
                </mxCell>
                <mxCell id="5" value="&amp;lt;&amp;lt;include&amp;gt;&amp;gt;" style="html=1;verticalAlign=bottom;labelBackgroundColor=none;endArrow=open;endFill=0;dashed=1;exitX=1;exitY=0;exitDx=0;exitDy=0;entryX=0;entryY=0.5;entryDx=0;entryDy=0;" edge="1" parent="1" source="ask-question" target="format-response">
                    <mxGeometry width="160" relative="1" as="geometry">
                        <mxPoint x="333" y="230" as="sourcePoint"/>
                        <mxPoint x="550" y="290" as="targetPoint"/>
                    </mxGeometry>
                </mxCell>
                <mxCell id="6" value="&amp;lt;&amp;lt;include&amp;gt;&amp;gt;" style="html=1;verticalAlign=bottom;labelBackgroundColor=none;endArrow=open;endFill=0;dashed=1;exitX=1;exitY=0.5;exitDx=0;exitDy=0;entryX=0;entryY=0.5;entryDx=0;entryDy=0;" edge="1" parent="1" source="get-hints" target="analyze-code">
                    <mxGeometry width="160" relative="1" as="geometry">
                        <mxPoint x="333" y="230" as="sourcePoint"/>
                        <mxPoint x="550" y="280" as="targetPoint"/>
                    </mxGeometry>
                </mxCell>
                <mxCell id="7" value="" style="endArrow=none;html=1;rounded=0;fontSize=12;startSize=8;endSize=8;entryX=0;entryY=0.5;entryDx=0;entryDy=0;" edge="1" parent="1" source="student" target="suggest-optimization">
                    <mxGeometry width="50" height="50" relative="1" as="geometry">
                        <mxPoint x="100" y="350" as="sourcePoint"/>
                        <mxPoint x="230" y="350" as="targetPoint"/>
                    </mxGeometry>
                </mxCell>
                <mxCell id="8" value="&amp;lt;&amp;lt;include&amp;gt;&amp;gt;" style="html=1;verticalAlign=bottom;labelBackgroundColor=none;endArrow=open;endFill=0;dashed=1;exitX=1;exitY=0.5;exitDx=0;exitDy=0;entryX=0.5;entryY=1;entryDx=0;entryDy=0;" edge="1" parent="1" source="suggest-optimization" target="analyze-code">
                    <mxGeometry width="160" relative="1" as="geometry">
                        <mxPoint x="350" y="350" as="sourcePoint"/>
                        <mxPoint x="550" y="350" as="targetPoint"/>
                    </mxGeometry>
                </mxCell>
                <mxCell id="9" value="&amp;lt;&amp;lt;extend&amp;gt;&amp;gt;" style="html=1;verticalAlign=bottom;labelBackgroundColor=none;endArrow=open;endFill=0;dashed=1;entryX=0.5;entryY=0;entryDx=0;entryDy=0;exitX=0;exitY=0.5;exitDx=0;exitDy=0;" edge="1" parent="1" source="personalized-hints" target="get-hints">
                    <mxGeometry width="160" relative="1" as="geometry">
                        <mxPoint x="330" y="500" as="sourcePoint"/>
                        <mxPoint x="490" y="500" as="targetPoint"/>
                    </mxGeometry>
                </mxCell>
                <mxCell id="10" value="" style="endArrow=none;html=1;rounded=0;fontSize=12;startSize=8;endSize=8;entryX=0;entryY=0.5;entryDx=0;entryDy=0;" edge="1" parent="1" source="student" target="generate-test-cases">
                    <mxGeometry width="50" height="50" relative="1" as="geometry">
                        <mxPoint x="100" y="363" as="sourcePoint"/>
                        <mxPoint x="230" y="445" as="targetPoint"/>
                    </mxGeometry>
                </mxCell>
                <mxCell id="11" value="&amp;lt;&amp;lt;include&amp;gt;&amp;gt;" style="html=1;verticalAlign=bottom;labelBackgroundColor=none;endArrow=open;endFill=0;dashed=1;exitX=1;exitY=0.5;exitDx=0;exitDy=0;entryX=0.5;entryY=1;entryDx=0;entryDy=0;" edge="1" parent="1" source="generate-test-cases" target="retrieve-knowledge">
                    <mxGeometry width="160" relative="1" as="geometry">
                        <mxPoint x="333" y="230" as="sourcePoint"/>
                        <mxPoint x="595" y="280" as="targetPoint"/>
                    </mxGeometry>
                </mxCell>
                <mxCell id="12" value="&amp;lt;&amp;lt;extend&amp;gt;&amp;gt;" style="html=1;verticalAlign=bottom;labelBackgroundColor=none;endArrow=open;endFill=0;dashed=1;entryX=0;entryY=0.5;entryDx=0;entryDy=0;exitX=1;exitY=0.5;exitDx=0;exitDy=0;" edge="1" parent="1" source="analyze-code" target="mistake-detection">
                    <mxGeometry width="160" relative="1" as="geometry">
                        <mxPoint x="390" y="300" as="sourcePoint"/>
                        <mxPoint x="290" y="315" as="targetPoint"/>
                    </mxGeometry>
                </mxCell>
                <mxCell id="13" value="&amp;lt;&amp;lt;extend&amp;gt;&amp;gt;" style="html=1;verticalAlign=bottom;labelBackgroundColor=none;endArrow=open;endFill=0;dashed=1;entryX=0.5;entryY=1;entryDx=0;entryDy=0;exitX=0;exitY=0.5;exitDx=0;exitDy=0;" edge="1" parent="1" source="code-completion" target="get-hints">
                    <mxGeometry width="160" relative="1" as="geometry">
                        <mxPoint x="390" y="300" as="sourcePoint"/>
                        <mxPoint x="290" y="315" as="targetPoint"/>
                    </mxGeometry>
                </mxCell>
                <mxCell id="14" value="&amp;lt;&amp;lt;extend&amp;gt;&amp;gt;" style="html=1;verticalAlign=bottom;labelBackgroundColor=none;endArrow=open;endFill=0;dashed=1;" edge="1" parent="1" source="adaptive-learning" target="ask-question">
                    <mxGeometry width="160" relative="1" as="geometry">
                        <mxPoint x="390" y="300" as="sourcePoint"/>
                        <mxPoint x="290" y="315" as="targetPoint"/>
                    </mxGeometry>
                </mxCell>
            </root>
        </mxGraphModel>
    </diagram>
</mxfile>